<?xml version="1.0" encoding="utf-8"?>
<!-- Generator: Adobe Illustrator 22.1.0, SVG Export Plug-In . SVG Version: 6.00 Build 0)  -->
<svg version="1.1" id="Layer_1" xmlns="http://www.w3.org/2000/svg" xmlns:xlink="http://www.w3.org/1999/xlink" x="0px" y="0px"
	 viewBox="0 0 547.1 231.3" style="enable-background:new 0 0 547.1 231.3;" xml:space="preserve">
<style type="text/css">
	.st0{fill:#AED4E7;}
	.st1{fill:#00326B;}
	.st2{fill:#FFFFFF;}
</style>
<g>
	<path class="st2" d="M408.8,68.9l-2.5,1.5l-1.1-1.9l7.1-4.2l1.1,1.9l-2.5,1.5l4.4,7.5l-2.1,1.2L408.8,68.9z"/>
	<path class="st2" d="M416.7,62.5l4.3-1.3c1.9-0.6,4,0.4,4.6,2.3c0.4,1.4,0,2.7-0.9,3.5l3.8,3.2l-2.6,0.8l-3.2-2.8l0,0l-1.5,0.5
		l1.1,3.5l-2.3,0.7L416.7,62.5z M422.3,66.1c0.9-0.3,1.3-1,1-1.9c-0.3-0.8-1-1.2-1.7-1l-2,0.6l0.9,2.8L422.3,66.1z"/>
	<path class="st2" d="M433.4,58.9l2.1-0.1l5.1,10.6l-2.6,0.1l-0.8-1.8l-4.5,0.2l-0.6,1.9l-2.6,0.1L433.4,58.9z M436.4,65.8l-1.8-3.9
		l-1.4,4L436.4,65.8z"/>
	<path class="st2" d="M444.9,59.1l4.2,0.9c1.7,0.3,2.8,1.8,2.5,3.3c-0.2,1-0.9,1.7-1.8,1.9c1.4,0.5,1.9,1.7,1.6,3.1
		c-0.4,1.8-2,2.9-3.9,2.5l-4.8-1L444.9,59.1z M447.5,68.6c0.8,0.2,1.5-0.3,1.6-1c0.1-0.7-0.3-1.4-1.1-1.5l-2-0.4l-0.5,2.6
		L447.5,68.6z M447.9,64.1c0.7,0.1,1.2-0.2,1.4-0.9c0.1-0.6-0.3-1.2-0.9-1.3l-1.6-0.3l-0.4,2.2L447.9,64.1z"/>
	<path class="st2" d="M461,63.9l1.9,0.9l-0.7,11.7l-2.3-1.1l0.1-2l-4.1-2l-1.5,1.3l-2.3-1.1L461,63.9z M460.3,71.5l0.3-4.2l-3.1,2.9
		L460.3,71.5z"/>
	<path class="st2" d="M464.7,75.9c0.1,0.2,0.4,0.5,0.7,0.6c0.9,0.7,1.5,0.2,2-0.4l4.5-5.8l1.9,1.5l-4.4,5.6c-1.2,1.5-2.6,2.9-5.1,1
		c-0.3-0.2-0.6-0.5-0.9-0.9L464.7,75.9z"/>
	<path class="st2" d="M481.4,79.3c2.1,2.5,1.8,6.1-0.6,8.1c-2.4,2-6,1.6-8-0.9c-2-2.5-1.8-6,0.6-8.1
		C475.7,76.4,479.3,76.8,481.4,79.3z M474.4,85.1c1.2,1.5,3.3,1.6,4.8,0.4c1.5-1.2,1.7-3.3,0.5-4.8c-1.2-1.5-3.4-1.6-4.8-0.4
		C473.3,81.5,473.1,83.6,474.4,85.1z"/>
	<path class="st2" d="M485,100.1l5.4-5.8l0.7,2.5l-3.6,3.8l5.1,1.2l0.7,2.5l-7.7-1.9l-3.9,1.2l-0.7-2.3L485,100.1z"/>
	<path class="st2" d="M494,121.9c-0.2,1.8-1.1,3.2-2.4,4.2l-1.2-1.8c0.8-0.6,1.4-1.5,1.5-2.6c0.2-1.9-1.1-3.6-3.1-3.7
		c-2-0.2-3.5,1.2-3.7,3.1c-0.1,1.1,0.3,2.1,1,2.9l-1.5,1.5c-1.2-1.2-1.8-2.8-1.6-4.6c0.3-3.2,2.9-5.6,6.1-5.3
		C492.2,115.8,494.3,118.7,494,121.9z"/>
	<path class="st2" d="M490.6,136.2c-1.2,3-4.4,4.5-7.4,3.4c-3-1.1-4.3-4.4-3.2-7.4c1.2-3,4.4-4.5,7.4-3.4
		C490.3,129.9,491.7,133.2,490.6,136.2z M482.1,132.9c-0.7,1.8,0.2,3.7,2,4.4c1.8,0.7,3.8-0.1,4.4-1.9c0.7-1.8-0.2-3.7-2-4.4
		C484.7,130.3,482.8,131.1,482.1,132.9z"/>
	<path class="st2" d="M485.4,146.4l-1.3,1.7l-8.5,0l5.4,4.1l-1.4,1.8l-8.6-6.6l1.2-1.6l8.8,0l-5.5-4.2l1.4-1.8L485.4,146.4z"/>
	<path class="st2" d="M475.4,158l-5.6,4.5l-1.4-1.7l3.7-3l-1.4-1.7l-3.4,2.7l-1.3-1.7l3.4-2.7l-2.7-3.4l1.9-1.5L475.4,158z"/>
	<path class="st2" d="M465.7,164.9l-2.1,1.2l-5.2-9.5l2.1-1.2L465.7,164.9z"/>
	<path class="st2" d="M455.2,169.6l-2,0.6l-7.5-9.1l2.4-0.8l1.2,1.5l4.3-1.3l0.2-2l2.4-0.8L455.2,169.6z M450.6,163.6l2.7,3.3
		l0.4-4.2L450.6,163.6z"/>
	<path class="st2" d="M443.8,172.3l-2.1,0.1l-5.4-6.6l0.2,6.7l-2.3,0.1l-0.3-10.9l2-0.1l5.6,6.8l-0.2-6.9l2.3-0.1L443.8,172.3z"/>
	<path class="st2" d="M430.9,163l-7.2,5.5l5.1,1.2l-0.5,2.1l-8.2-1.9l0.4-1.8l7.1-5.4l-5.6-1.3l0.5-2.1l8.8,2.1L430.9,163z"/>
	<path class="st2" d="M411.9,166.5l-1.9-1l1.1-11.7l2.3,1.2l-0.2,2l4,2.1l1.5-1.3l2.3,1.2L411.9,166.5z M412.9,158.9l-0.4,4.2
		l3.2-2.8L412.9,158.9z"/>
	<polygon class="st2" points="53,98.2 69.9,98.2 69.9,98.2 95.7,98.2 95.7,98.2 112.6,98.2 112.6,83.3 53,83.3 	"/>
	<polygon class="st2" points="303.7,103.7 291.7,83.3 268.7,83.3 292,122.3 303.2,104.5 	"/>
	<polygon class="st2" points="197.3,147.9 219.8,147.9 235.7,111.5 224.5,85.8 	"/>
	<path class="st2" d="M437.4,100.9c7.7,0,14,5.9,14.6,13.4h17.6c-0.7-17.2-14.8-31-32.2-31c-17.4,0-31.6,13.8-32.2,31h17.6
		C423.4,106.8,429.7,100.9,437.4,100.9z"/>
	<path class="st2" d="M374.7,147.9c8.9,0,17-3.6,22.9-9.5L385,125.9c-2.6,2.7-6.3,4.4-10.4,4.4c-7.1,0-13-5.1-14.3-11.9h-17.8
		C344,134.9,357.8,147.9,374.7,147.9z"/>
	<polygon class="st2" points="146.7,113.2 146.7,113.2 146.7,102.1 146.7,102.1 146.7,83.3 126.9,83.3 126.9,131.6 126.9,147.9 
		146.7,147.9 146.7,134 146.7,134 	"/>
	<path class="st2" d="M437.4,147.9c17.6,0,31.8-14.1,32.2-31.5H452c-0.4,7.7-6.7,13.9-14.6,13.9c-7.8,0-14.2-6.2-14.6-13.9h-17.7
		C405.5,133.8,419.8,147.9,437.4,147.9z"/>
	<path class="st2" d="M374.7,100.9c4.1,0,7.7,1.7,10.4,4.4l12.5-12.5c-5.8-5.9-13.9-9.5-22.9-9.5c-17.8,0-32.3,14.5-32.3,32.3
		c0,0.3,0,0.5,0,0.8h17.7c0-0.3-0.1-0.5-0.1-0.8C360,107.5,366.6,100.9,374.7,100.9z"/>
	<path class="st2" d="M149.8,100.1h6.8h2.9c4.2,0,7.6,3.4,7.6,7.6c0,4.2-3.4,7.6-7.6,7.6h-2.9h-6.8h-1.1V132h7.6l10.7,15.9h21.8
		l-12.9-19c7.7-4,12.9-12.1,12.9-21.4c0-13.3-10.8-24.2-24.2-24.2H158h-9.3v16.8H149.8z"/>
	<rect x="72" y="100.2" class="st2" width="21.8" height="47.7"/>
	<polygon class="st2" points="314.9,147.9 314.9,124.4 339.2,83.3 318.2,83.3 304.9,105.6 293.1,124.3 293.1,147.9 	"/>
	<polygon class="st2" points="253.7,147.9 276.2,147.9 248,83.3 245.4,83.3 225.6,83.3 	"/>
</g>
</svg>
